:SAMPLES-PER-SECOND 30
:FULLY-SPECIFIED
:DEGREES
629
root  79.8091 38.3286 -8.61585 -39.7655 -80.8343 40.1062
RightUpLeg  -7.40948 -13.9533 -22.1265
RightLeg  5.6621 7.20831 -3.7099
RightFoot  4.40154 -1.04375 7.68333
RightToes  -1.16417e-010 0 -3.6325e-017
Spine  2.95873 0.774811 2.47978
Spine1  7.1485 2.1993 -6.02186
HEad  -4.02949 -19.87 -7.89832
LeftShoulder1  -0.464771 4.70241 -32.613
LeftArm  3.96841 7.90911 -40.6282
LeftForeArm  23.0542 -17.4626 -5.79779
LeftHand  -0.101604 8.9876 -1.6089
RightShoulder  -0.881034 -6.02139 28.4081
RightArm  9.39062 0.545206 43.9729
RightForeArm  13.7939 14.408 4.42264
RightHand  -0.0317049 4.44376 -0.672119
LeftUpLeg  -1.47829 9.5013 1.92095
LeftLeg  13.2762 0.0992752 -0.773424
LeftFoot  -11.4644 0.0616218 -6.03476
LeftToes  3.13772e-010 -3.14513e-011 3.96022e-013
630
root  79.9453 38.4057 -7.83968 -44.83 -82.0777 44.6547
RightUpLeg  -9.37071 -8.14549 -21.8826
RightLeg  9.29499 4.74457 -3.17505
RightFoot  3.01083 -0.334203 2.97637
RightToes  -1.16417e-010 0 -3.6325e-017
Spine  2.81141 1.19898 3.57185
Spine1  8.14257 3.084 -7.71211
HEad  -4.95301 -20.0867 -8.27777
LeftShoulder1  -0.58694 5.00216 -33.029
LeftArm  0.330658 4.8191 -39.7334
LeftForeArm  26.3549 -13.961 -7.18877
LeftHand  -0.111401 9.1989 -1.53134
RightShoulder  -0.844608 -5.93681 28.1162
RightArm  8.75198 -0.880337 44.9754
RightForeArm  13.5202 13.562 4.4867
RightHand  -0.0687553 3.94099 -1.13682
LeftUpLeg  -0.629648 9.16168 1.04703
LeftLeg  13.0385 2.00535 -0.641771
LeftFoot  -11.9066 0.0467437 -5.07169
LeftToes  3.13772e-010 -3.14513e-011 3.96022e-013
631
root  80.0299 38.3433 -7.2629 -51.5118 -82.9861 50.7098
RightUpLeg  -10.9095 -2.48653 -22.2435
RightLeg  13.4841 1.20568 -0.808341
RightFoot  0.607173 -0.741545 7.04503
RightToes  -1.16417e-010 0 -3.6325e-017
Spine  3.875 1.27863 3.16076
Spine1  7.22206 3.37605 -9.27622
HEad  -5.12015 -18.7878 -9.04327
LeftShoulder1  -0.574147 4.97766 -32.7981
LeftArm  -3.14939 3.79677 -39.4902
LeftForeArm  29.2674 -11.5353 -7.54762
LeftHand  -0.0073566 10.7104 -0.0743765
RightShoulder  -0.822922 -5.87031 28.1661
RightArm  10.8514 -1.70177 45.671
RightForeArm  14.7639 12.3623 5.2123
RightHand  0.00702882 4.64762 -0.215844
LeftUpLeg  -0.384562 8.86775 0.375603
LeftLeg  14.2922 3.57829 -0.543361
LeftFoot  -12.9857 0.0132614 -4.4721
LeftToes  3.13772e-010 -3.14513e-011 3.96022e-013
632
root  80.0074 38.3888 -6.75839 -52.6714 -83.8575 51.302
RightUpLeg  -12.7964 -1.17896 -20.2411
RightLeg  18.7231 1.29911 0.408435
RightFoot  -0.469213 -0.679389 7.1047
RightToes  -1.16417e-010 0 -3.6325e-017
Spine  4.16701 1.0969 1.71556
Spine1  6.76067 2.80754 -8.28653
HEad  -4.97452 -17.1576 -9.5335
LeftShoulder1  -0.522714 4.85881 -32.4343
LeftArm  -6.42346 3.50774 -39.5617
LeftForeArm  28.1764 -8.72374 -7.53087
LeftHand  0.179581 16.5661 2.79194
RightShoulder  -0.795969 -5.79064 28.1864
RightArm  14.3386 -2.7133 46.0748
RightForeArm  17.3437 12.8373 5.84923
RightHand  -0.0252762 3.67689 -0.5497
LeftUpLeg  0.546422 8.72814 0.421609
LeftLeg  14.0885 4.57434 -0.62993
LeftFoot  -13.4151 0.0115202 -3.80829
LeftToes  3.13772e-010 -3.14513e-011 3.96022e-013
633
root  79.9747 38.4219 -6.30631 -43.9168 -83.9588 42.3589
RightUpLeg  -14.7135 -2.91884 -17.4179
RightLeg  24.231 2.01022 0.762365
RightFoot  -1.41761 -0.655466 7.42181
RightToes  -1.16417e-010 0 -3.6325e-017
Spine  3.91727 0.268761 -0.292557
Spine1  6.70043 1.37256 -6.26746
HEad  -5.02422 -15.3659 -9.52308
LeftShoulder1  -0.532872 4.88444 -32.4518
LeftArm  -6.63409 2.89423 -39.4655
LeftForeArm  30.2001 -6.99623 -7.65609
LeftHand  0.0232618 13.6551 1.35012
RightShoulder  -0.799108 -5.80894 28.0501
RightArm  17.5844 -3.7155 46.7853
RightForeArm  19.353 14.0072 6.01242
RightHand  0.0545771 3.05709 0.512178
LeftUpLeg  0.664968 8.58969 0.397344
LeftLeg  14.263 4.24851 -0.548254
LeftFoot  -13.8278 0.0157607 -3.0858
LeftToes  3.13772e-010 -3.14513e-011 3.96022e-013
